<svg width="26" height="26" viewBox="0 0 26 26" fill="none" xmlns="http://www.w3.org/2000/svg">
<mask id="path-1-inside-1_2874_2503" fill="white">
<path d="M12.5996 0C19.5583 0 25.2 5.641 25.2002 12.5996C25.2002 19.5584 19.5584 25.2002 12.5996 25.2002C5.641 25.2 0 19.5583 0 12.5996C0.000211307 5.64113 5.64113 0.000211312 12.5996 0Z"/>
</mask>
<path d="M12.5996 0C19.5583 0 25.2 5.641 25.2002 12.5996C25.2002 19.5584 19.5584 25.2002 12.5996 25.2002C5.641 25.2 0 19.5583 0 12.5996C0.000211307 5.64113 5.64113 0.000211312 12.5996 0Z" fill="white" fill-opacity="0.5"/>
<path d="M12.5996 0V-1H12.5996L12.5996 0ZM25.2002 12.5996H26.2002V12.5996L25.2002 12.5996ZM12.5996 25.2002L12.5996 26.2002H12.5996V25.2002ZM0 12.5996L-1 12.5996V12.5996H0ZM12.5996 0V1C19.0061 1 24.2 6.19336 24.2002 12.5996L25.2002 12.5996L26.2002 12.5996C26.2 5.08864 20.1105 -1 12.5996 -1V0ZM25.2002 12.5996H24.2002C24.2002 19.0061 19.0061 24.2002 12.5996 24.2002V25.2002V26.2002C20.1107 26.2002 26.2002 20.1107 26.2002 12.5996H25.2002ZM12.5996 25.2002L12.5996 24.2002C6.19336 24.2 1 19.0061 1 12.5996H0H-1C-1 20.1105 5.08864 26.2 12.5996 26.2002L12.5996 25.2002ZM0 12.5996L1 12.5996C1.00019 6.19342 6.19342 1.00019 12.5996 1L12.5996 0L12.5996 -1C5.08884 -0.999772 -0.999772 5.08884 -1 12.5996L0 12.5996Z" fill="white" fill-opacity="0.5" mask="url(#path-1-inside-1_2874_2503)"/>
<path opacity="0.6" d="M12.3096 10.1777C12.5218 10.1777 12.7555 10.1759 12.9512 10.2021C13.1412 10.2277 13.3774 10.2888 13.5898 10.46L13.6797 10.54L13.7598 10.6289C13.9311 10.8414 13.992 11.0775 14.0176 11.2676C14.0439 11.4633 14.042 11.6978 14.042 11.9102V16.8604C14.0418 17.2701 13.7096 17.6024 13.2998 17.6025C12.8899 17.6025 12.5569 17.2702 12.5566 16.8604V11.9102C12.5566 11.8118 12.5558 11.732 12.5547 11.6631C12.4862 11.662 12.4071 11.6621 12.3096 11.6621C11.8995 11.6621 11.5674 11.33 11.5674 10.9199C11.5674 10.5099 11.8995 10.1777 12.3096 10.1777ZM13.0615 6.95898C13.6081 6.95924 14.0518 7.40262 14.0518 7.94922C14.0517 8.49578 13.608 8.93919 13.0615 8.93945H13.0527C12.506 8.93945 12.0626 8.49594 12.0625 7.94922C12.0625 7.40246 12.506 6.95898 13.0527 6.95898H13.0615Z" fill="#1A1A1A"/>
</svg>
