<svg width="154" height="101" viewBox="0 0 154 101" fill="none" xmlns="http://www.w3.org/2000/svg">
<path d="M102.891 89.0371C106.169 89.0371 108.826 91.6945 108.826 94.9727C108.826 98.2509 106.169 100.908 102.891 100.908C99.6125 100.908 96.9551 98.2508 96.9551 94.9727C96.9552 91.6946 99.6126 89.0372 102.891 89.0371ZM117.73 89.0371C121.009 89.0371 123.666 91.6945 123.666 94.9727C123.666 98.2509 121.009 100.908 117.73 100.908C114.452 100.908 111.795 98.2508 111.795 94.9727C111.795 91.6946 114.452 89.0372 117.73 89.0371ZM132.57 89.0371C135.848 89.0371 138.506 91.6945 138.506 94.9727C138.506 98.2509 135.849 100.908 132.57 100.908C129.292 100.908 126.635 98.2508 126.635 94.9727C126.635 91.6946 129.292 89.0372 132.57 89.0371ZM147.406 89.0371C150.684 89.0371 153.342 91.6945 153.342 94.9727C153.342 98.2509 150.684 100.908 147.406 100.908C144.128 100.908 141.471 98.2508 141.471 94.9727C141.471 91.6946 144.128 89.0372 147.406 89.0371ZM5.9375 89.0352C9.21565 89.0352 11.8729 91.6926 11.873 94.9707C11.873 98.2489 9.21572 100.906 5.9375 100.906C2.65937 100.906 0.00195312 98.2489 0.00195312 94.9707C0.00205852 91.6926 2.65943 89.0353 5.9375 89.0352ZM65.293 89.0352C68.5711 89.0352 71.2284 91.6926 71.2285 94.9707C71.2285 98.2489 68.5712 100.906 65.293 100.906C62.0148 100.906 59.3574 98.2489 59.3574 94.9707C59.3575 91.6926 62.0149 89.0353 65.293 89.0352ZM5.9375 75.1855C9.21565 75.1855 11.8729 77.843 11.873 81.1211C11.873 84.3993 9.21572 87.0566 5.9375 87.0566C2.65937 87.0565 0.00195312 84.3992 0.00195312 81.1211C0.00205852 77.843 2.65943 75.1857 5.9375 75.1855ZM65.293 75.1855C68.5711 75.1855 71.2284 77.843 71.2285 81.1211C71.2285 84.3993 68.5712 87.0566 65.293 87.0566C62.0148 87.0565 59.3574 84.3992 59.3574 81.1211C59.3575 77.843 62.0149 75.1857 65.293 75.1855ZM87.0586 73.209C90.3367 73.209 92.994 75.8664 92.9941 79.1445C92.9941 82.4228 90.3368 85.0801 87.0586 85.0801C83.7805 85.08 81.123 82.4227 81.123 79.1445C81.1232 75.8665 83.7805 73.2091 87.0586 73.209ZM146.414 73.209C149.692 73.209 152.35 75.8664 152.35 79.1445C152.35 82.4228 149.692 85.0801 146.414 85.0801C143.136 85.08 140.479 82.4227 140.479 79.1445C140.479 75.8665 143.136 73.2091 146.414 73.209ZM5.9375 59.3574C9.21565 59.3574 11.8729 62.0148 11.873 65.293C11.873 68.5712 9.21572 71.2285 5.9375 71.2285C2.65937 71.2284 0.00195312 68.5711 0.00195312 65.293C0.00205852 62.0149 2.65943 59.3575 5.9375 59.3574ZM65.293 59.3574C68.5711 59.3574 71.2284 62.0148 71.2285 65.293C71.2285 68.5712 68.5712 71.2285 65.293 71.2285C62.0148 71.2284 59.3574 68.5711 59.3574 65.293C59.3575 62.0149 62.0149 59.3575 65.293 59.3574ZM87.0586 59.3574C90.3367 59.3574 92.994 62.0148 92.9941 65.293C92.9941 68.5712 90.3368 71.2285 87.0586 71.2285C83.7805 71.2284 81.123 68.5711 81.123 65.293C81.1232 62.0149 83.7805 59.3575 87.0586 59.3574ZM146.414 59.3574C149.692 59.3574 152.35 62.0148 152.35 65.293C152.35 68.5712 149.692 71.2285 146.414 71.2285C143.136 71.2284 140.479 68.5711 140.479 65.293C140.479 62.0149 143.136 59.3575 146.414 59.3574ZM5.9375 45.5059C9.21565 45.5059 11.8729 48.1633 11.873 51.4414C11.873 54.7196 9.21572 57.377 5.9375 57.377C2.65937 57.3768 0.00195312 54.7196 0.00195312 51.4414C0.00205852 48.1633 2.65943 45.506 5.9375 45.5059ZM65.293 45.5059C68.5711 45.5059 71.2284 48.1633 71.2285 51.4414C71.2285 54.7196 68.5712 57.377 65.293 57.377C62.0148 57.3768 59.3574 54.7196 59.3574 51.4414C59.3575 48.1633 62.0149 45.506 65.293 45.5059ZM87.0586 43.5293C90.3367 43.5293 92.994 46.1867 92.9941 49.4648C92.9941 52.7431 90.3368 55.4004 87.0586 55.4004C83.7805 55.4003 81.123 52.743 81.123 49.4648C81.1232 46.1868 83.7805 43.5294 87.0586 43.5293ZM146.414 43.5293C149.692 43.5293 152.35 46.1867 152.35 49.4648C152.35 52.7431 149.692 55.4004 146.414 55.4004C143.136 55.4003 140.479 52.743 140.479 49.4648C140.479 46.1868 143.136 43.5294 146.414 43.5293ZM21.7656 29.6797C25.0438 29.6797 27.7011 32.3371 27.7012 35.6152C27.7012 38.8935 25.0438 41.5508 21.7656 41.5508C18.4875 41.5507 15.8301 38.8934 15.8301 35.6152C15.8302 32.3372 18.4876 29.6798 21.7656 29.6797ZM51.4453 29.6797C54.7235 29.6797 57.3808 32.3371 57.3809 35.6152C57.3809 38.8935 54.7235 41.5508 51.4453 41.5508C48.1672 41.5507 45.5098 38.8934 45.5098 35.6152C45.5099 32.3372 48.1672 29.6798 51.4453 29.6797ZM87.0586 29.6797C90.3367 29.6797 92.994 32.3371 92.9941 35.6152C92.9941 38.8935 90.3368 41.5508 87.0586 41.5508C83.7805 41.5507 81.123 38.8934 81.123 35.6152C81.1232 32.3372 83.7805 29.6798 87.0586 29.6797ZM146.414 29.6797C149.692 29.6797 152.35 32.3371 152.35 35.6152C152.35 38.8935 149.692 41.5508 146.414 41.5508C143.136 41.5507 140.479 38.8934 140.479 35.6152C140.479 32.3372 143.136 29.6798 146.414 29.6797ZM5.9375 29.6777C9.21565 29.6777 11.8729 32.3352 11.873 35.6133C11.873 38.8915 9.21572 41.5488 5.9375 41.5488C2.65937 41.5487 0.00195312 38.8914 0.00195312 35.6133C0.00205852 32.3352 2.65943 29.6778 5.9375 29.6777ZM35.6172 29.6777C38.8953 29.6777 41.5526 32.3352 41.5527 35.6133C41.5527 38.8915 38.8954 41.5488 35.6172 41.5488C32.3391 41.5487 29.6816 38.8914 29.6816 35.6133C29.6817 32.3352 32.3391 29.6778 35.6172 29.6777ZM5.9375 15.8281C9.21565 15.8281 11.8729 18.4855 11.873 21.7637C11.873 25.0419 9.21572 27.6992 5.9375 27.6992C2.65937 27.6991 0.00195312 25.0418 0.00195312 21.7637C0.00205852 18.4856 2.65943 15.8282 5.9375 15.8281ZM5.9375 0C9.21565 0 11.8729 2.65742 11.873 5.93555C11.873 9.21377 9.21572 11.8711 5.9375 11.8711C2.65937 11.871 0.00195312 9.2137 0.00195312 5.93555C0.00205852 2.65748 2.65943 0.000105398 5.9375 0Z" fill="#1A1A1A"/>
</svg>
