<svg width="13" height="13" viewBox="0 0 13 13" fill="none" xmlns="http://www.w3.org/2000/svg">
<circle cx="6.125" cy="6.125" r="6.125" fill="white" fill-opacity="0.8"/>
<g opacity="0.5">
<path d="M5.99117 8.38362C5.84217 8.38362 5.72167 8.26312 5.72167 8.11412C5.72167 7.76162 5.77167 7.45712 5.87117 7.20112C5.94417 7.00812 6.06267 6.81362 6.22567 6.61712C6.34567 6.47412 6.56067 6.26512 6.87167 5.99112C7.18267 5.71662 7.38467 5.49812 7.47817 5.33512C7.57167 5.17212 7.61767 4.99412 7.61767 4.80112C7.61767 4.45162 7.48117 4.14512 7.20867 3.88062C6.93617 3.61612 6.60167 3.48412 6.20567 3.48412C5.82317 3.48412 5.50367 3.60412 5.24767 3.84362C5.06067 4.01862 4.92017 4.26562 4.82717 4.58462C4.76317 4.80362 4.54967 4.94362 4.32317 4.91662C4.03617 4.88262 3.84717 4.59862 3.92917 4.32112C4.05517 3.89462 4.26617 3.55112 4.56167 3.29012C4.97217 2.92662 5.51517 2.74512 6.19067 2.74512C6.90567 2.74512 7.47617 2.93962 7.90217 3.32912C8.32817 3.71862 8.54067 4.18912 8.54067 4.74112C8.54067 5.06062 8.46567 5.35512 8.31617 5.62412C8.16667 5.89362 7.87367 6.22112 7.43817 6.60712C7.14567 6.86662 6.95417 7.05812 6.86417 7.18112C6.77417 7.30412 6.70767 7.44562 6.66467 7.60512C6.63267 7.72362 6.61067 7.89762 6.59867 8.12612C6.59117 8.27012 6.47167 8.38312 6.32767 8.38312H5.99117V8.38362ZM5.67167 9.67362C5.67167 9.39112 5.90067 9.16212 6.18317 9.16212C6.46567 9.16212 6.69467 9.39112 6.69467 9.67362C6.69467 9.95612 6.46567 10.1851 6.18317 10.1851C5.90067 10.1851 5.67167 9.95612 5.67167 9.67362Z" fill="black"/>
</g>
</svg>
