<svg width="19" height="20" viewBox="0 0 19 20" fill="none" xmlns="http://www.w3.org/2000/svg">
<path d="M16.4517 9.40768C9.43683 7.82137 8.91729 0.741136 8.91729 0.741136C8.91729 0.741136 8.39775 7.82137 1.38292 9.40768C8.39775 10.994 8.91729 18.0742 8.91729 18.0742C8.91729 18.0742 9.43683 10.994 16.4517 9.40768Z" fill="white"/>
<path d="M12.9216 15.3331C13.3938 15.4258 13.8248 15.669 14.152 16.0275C14.4792 16.3861 14.6857 16.8414 14.7415 17.3274C14.7974 16.8414 15.0039 16.3861 15.3311 16.0275C15.6583 15.669 16.0892 15.4258 16.5614 15.3331C16.0892 15.2405 15.6583 14.9973 15.3311 14.6387C15.0039 14.2802 14.7974 13.8249 14.7415 13.3389C14.6857 13.8249 14.4792 14.2802 14.152 14.6387C13.8248 14.9973 13.3938 15.2405 12.9216 15.3331Z" fill="white"/>
</svg>
